<mxfile host="app.diagrams.net" agent="Mozilla/5.0 (Windows NT 10.0; Win64; x64; rv:132.0) Gecko/20100101 Firefox/132.0" version="24.8.3">
  <diagram name="Page-1" id="yN8Ju3_GJnFDOUDUSp5L">
    <mxGraphModel dx="2206" dy="1115" grid="1" gridSize="10" guides="1" tooltips="1" connect="1" arrows="1" fold="1" page="1" pageScale="1" pageWidth="1400" pageHeight="850" math="0" shadow="0">
      <root>
        <mxCell id="0" />
        <mxCell id="1" parent="0" />
        <mxCell id="J9BvfFVYBsQAbt8YfUmf-3" value="" style="edgeStyle=orthogonalEdgeStyle;rounded=0;orthogonalLoop=1;jettySize=auto;html=1;curved=0;" edge="1" parent="1" source="J9BvfFVYBsQAbt8YfUmf-1" target="J9BvfFVYBsQAbt8YfUmf-2">
          <mxGeometry relative="1" as="geometry" />
        </mxCell>
        <mxCell id="J9BvfFVYBsQAbt8YfUmf-1" value="" style="html=1;points=[[0,0,0,0,5],[0,1,0,0,-5],[1,0,0,0,5],[1,1,0,0,-5]];perimeter=orthogonalPerimeter;outlineConnect=0;targetShapes=umlLifeline;portConstraint=eastwest;newEdgeStyle={&quot;curved&quot;:0,&quot;rounded&quot;:0};fillColor=#000000;" vertex="1" parent="1">
          <mxGeometry x="500" y="155" width="10" height="80" as="geometry" />
        </mxCell>
        <mxCell id="J9BvfFVYBsQAbt8YfUmf-5" value="" style="edgeStyle=orthogonalEdgeStyle;rounded=0;orthogonalLoop=1;jettySize=auto;html=1;" edge="1" parent="1" source="J9BvfFVYBsQAbt8YfUmf-2" target="J9BvfFVYBsQAbt8YfUmf-4">
          <mxGeometry relative="1" as="geometry" />
        </mxCell>
        <mxCell id="J9BvfFVYBsQAbt8YfUmf-2" value="" style="ellipse;whiteSpace=wrap;html=1;aspect=fixed;" vertex="1" parent="1">
          <mxGeometry x="580" y="155" width="80" height="80" as="geometry" />
        </mxCell>
        <mxCell id="J9BvfFVYBsQAbt8YfUmf-11" value="" style="edgeStyle=orthogonalEdgeStyle;rounded=0;orthogonalLoop=1;jettySize=auto;html=1;curved=0;" edge="1" parent="1" source="J9BvfFVYBsQAbt8YfUmf-4" target="J9BvfFVYBsQAbt8YfUmf-9">
          <mxGeometry relative="1" as="geometry" />
        </mxCell>
        <mxCell id="J9BvfFVYBsQAbt8YfUmf-4" value="" style="html=1;points=[[0,0,0,0,5],[0,1,0,0,-5],[1,0,0,0,5],[1,1,0,0,-5]];perimeter=orthogonalPerimeter;outlineConnect=0;targetShapes=umlLifeline;portConstraint=eastwest;newEdgeStyle={&quot;curved&quot;:0,&quot;rounded&quot;:0};fillColor=#000000;" vertex="1" parent="1">
          <mxGeometry x="730" y="155" width="10" height="80" as="geometry" />
        </mxCell>
        <mxCell id="J9BvfFVYBsQAbt8YfUmf-8" value="" style="edgeStyle=orthogonalEdgeStyle;rounded=0;orthogonalLoop=1;jettySize=auto;html=1;" edge="1" parent="1" source="J9BvfFVYBsQAbt8YfUmf-9" target="J9BvfFVYBsQAbt8YfUmf-10">
          <mxGeometry relative="1" as="geometry" />
        </mxCell>
        <mxCell id="J9BvfFVYBsQAbt8YfUmf-9" value="" style="ellipse;whiteSpace=wrap;html=1;aspect=fixed;" vertex="1" parent="1">
          <mxGeometry x="830" y="155" width="80" height="80" as="geometry" />
        </mxCell>
        <mxCell id="J9BvfFVYBsQAbt8YfUmf-14" style="edgeStyle=orthogonalEdgeStyle;rounded=0;orthogonalLoop=1;jettySize=auto;html=1;curved=0;entryX=1;entryY=0.5;entryDx=0;entryDy=0;" edge="1" parent="1" source="J9BvfFVYBsQAbt8YfUmf-10" target="J9BvfFVYBsQAbt8YfUmf-12">
          <mxGeometry relative="1" as="geometry">
            <Array as="points">
              <mxPoint x="1020" y="165" />
              <mxPoint x="1020" y="65" />
            </Array>
          </mxGeometry>
        </mxCell>
        <mxCell id="J9BvfFVYBsQAbt8YfUmf-44" value="" style="edgeStyle=orthogonalEdgeStyle;rounded=0;orthogonalLoop=1;jettySize=auto;html=1;curved=0;entryX=0;entryY=0.5;entryDx=0;entryDy=0;" edge="1" parent="1" source="J9BvfFVYBsQAbt8YfUmf-10" target="J9BvfFVYBsQAbt8YfUmf-42">
          <mxGeometry relative="1" as="geometry">
            <mxPoint x="1045" y="195" as="targetPoint" />
          </mxGeometry>
        </mxCell>
        <mxCell id="J9BvfFVYBsQAbt8YfUmf-10" value="" style="html=1;points=[[0,0,0,0,5],[0,1,0,0,-5],[1,0,0,0,5],[1,1,0,0,-5]];perimeter=orthogonalPerimeter;outlineConnect=0;targetShapes=umlLifeline;portConstraint=eastwest;newEdgeStyle={&quot;curved&quot;:0,&quot;rounded&quot;:0};fillColor=#000000;" vertex="1" parent="1">
          <mxGeometry x="980" y="155" width="10" height="80" as="geometry" />
        </mxCell>
        <mxCell id="J9BvfFVYBsQAbt8YfUmf-12" value="" style="ellipse;whiteSpace=wrap;html=1;aspect=fixed;" vertex="1" parent="1">
          <mxGeometry x="830" y="25" width="80" height="80" as="geometry" />
        </mxCell>
        <mxCell id="J9BvfFVYBsQAbt8YfUmf-13" value="" style="ellipse;whiteSpace=wrap;html=1;aspect=fixed;fillColor=#050505;" vertex="1" parent="1">
          <mxGeometry x="855" y="50" width="30" height="30" as="geometry" />
        </mxCell>
        <mxCell id="J9BvfFVYBsQAbt8YfUmf-15" style="edgeStyle=orthogonalEdgeStyle;rounded=0;orthogonalLoop=1;jettySize=auto;html=1;entryX=0;entryY=0;entryDx=0;entryDy=5;entryPerimeter=0;" edge="1" parent="1" source="J9BvfFVYBsQAbt8YfUmf-12" target="J9BvfFVYBsQAbt8YfUmf-4">
          <mxGeometry relative="1" as="geometry">
            <Array as="points">
              <mxPoint x="710" y="65" />
              <mxPoint x="710" y="160" />
            </Array>
          </mxGeometry>
        </mxCell>
        <mxCell id="J9BvfFVYBsQAbt8YfUmf-48" value="" style="edgeStyle=orthogonalEdgeStyle;rounded=0;orthogonalLoop=1;jettySize=auto;html=1;" edge="1" parent="1" source="J9BvfFVYBsQAbt8YfUmf-42" target="J9BvfFVYBsQAbt8YfUmf-47">
          <mxGeometry relative="1" as="geometry" />
        </mxCell>
        <mxCell id="J9BvfFVYBsQAbt8YfUmf-42" value="" style="ellipse;whiteSpace=wrap;html=1;aspect=fixed;" vertex="1" parent="1">
          <mxGeometry x="1080" y="155" width="80" height="80" as="geometry" />
        </mxCell>
        <mxCell id="J9BvfFVYBsQAbt8YfUmf-100" value="" style="edgeStyle=orthogonalEdgeStyle;rounded=0;orthogonalLoop=1;jettySize=auto;html=1;curved=0;" edge="1" parent="1" source="J9BvfFVYBsQAbt8YfUmf-47" target="J9BvfFVYBsQAbt8YfUmf-92">
          <mxGeometry relative="1" as="geometry" />
        </mxCell>
        <mxCell id="J9BvfFVYBsQAbt8YfUmf-47" value="" style="html=1;points=[[0,0,0,0,5],[0,1,0,0,-5],[1,0,0,0,5],[1,1,0,0,-5]];perimeter=orthogonalPerimeter;outlineConnect=0;targetShapes=umlLifeline;portConstraint=eastwest;newEdgeStyle={&quot;curved&quot;:0,&quot;rounded&quot;:0};fillColor=#000000;" vertex="1" parent="1">
          <mxGeometry x="1230" y="155" width="10" height="80" as="geometry" />
        </mxCell>
        <mxCell id="J9BvfFVYBsQAbt8YfUmf-49" value="" style="edgeStyle=orthogonalEdgeStyle;rounded=0;orthogonalLoop=1;jettySize=auto;html=1;curved=0;" edge="1" parent="1" source="J9BvfFVYBsQAbt8YfUmf-50" target="J9BvfFVYBsQAbt8YfUmf-52">
          <mxGeometry relative="1" as="geometry" />
        </mxCell>
        <mxCell id="J9BvfFVYBsQAbt8YfUmf-50" value="" style="html=1;points=[[0,0,0,0,5],[0,1,0,0,-5],[1,0,0,0,5],[1,1,0,0,-5]];perimeter=orthogonalPerimeter;outlineConnect=0;targetShapes=umlLifeline;portConstraint=eastwest;newEdgeStyle={&quot;curved&quot;:0,&quot;rounded&quot;:0};fillColor=#000000;" vertex="1" parent="1">
          <mxGeometry x="500" y="425" width="10" height="80" as="geometry" />
        </mxCell>
        <mxCell id="J9BvfFVYBsQAbt8YfUmf-51" value="" style="edgeStyle=orthogonalEdgeStyle;rounded=0;orthogonalLoop=1;jettySize=auto;html=1;" edge="1" parent="1" source="J9BvfFVYBsQAbt8YfUmf-52" target="J9BvfFVYBsQAbt8YfUmf-54">
          <mxGeometry relative="1" as="geometry" />
        </mxCell>
        <mxCell id="J9BvfFVYBsQAbt8YfUmf-52" value="" style="ellipse;whiteSpace=wrap;html=1;aspect=fixed;" vertex="1" parent="1">
          <mxGeometry x="580" y="425" width="80" height="80" as="geometry" />
        </mxCell>
        <mxCell id="J9BvfFVYBsQAbt8YfUmf-53" value="" style="edgeStyle=orthogonalEdgeStyle;rounded=0;orthogonalLoop=1;jettySize=auto;html=1;curved=0;" edge="1" parent="1" source="J9BvfFVYBsQAbt8YfUmf-54" target="J9BvfFVYBsQAbt8YfUmf-56">
          <mxGeometry relative="1" as="geometry" />
        </mxCell>
        <mxCell id="J9BvfFVYBsQAbt8YfUmf-54" value="" style="html=1;points=[[0,0,0,0,5],[0,1,0,0,-5],[1,0,0,0,5],[1,1,0,0,-5]];perimeter=orthogonalPerimeter;outlineConnect=0;targetShapes=umlLifeline;portConstraint=eastwest;newEdgeStyle={&quot;curved&quot;:0,&quot;rounded&quot;:0};fillColor=#000000;" vertex="1" parent="1">
          <mxGeometry x="730" y="425" width="10" height="80" as="geometry" />
        </mxCell>
        <mxCell id="J9BvfFVYBsQAbt8YfUmf-55" value="" style="edgeStyle=orthogonalEdgeStyle;rounded=0;orthogonalLoop=1;jettySize=auto;html=1;" edge="1" parent="1" source="J9BvfFVYBsQAbt8YfUmf-56" target="J9BvfFVYBsQAbt8YfUmf-59">
          <mxGeometry relative="1" as="geometry" />
        </mxCell>
        <mxCell id="J9BvfFVYBsQAbt8YfUmf-56" value="" style="ellipse;whiteSpace=wrap;html=1;aspect=fixed;" vertex="1" parent="1">
          <mxGeometry x="830" y="425" width="80" height="80" as="geometry" />
        </mxCell>
        <mxCell id="J9BvfFVYBsQAbt8YfUmf-57" style="edgeStyle=orthogonalEdgeStyle;rounded=0;orthogonalLoop=1;jettySize=auto;html=1;curved=0;entryX=1;entryY=0.5;entryDx=0;entryDy=0;" edge="1" parent="1" source="J9BvfFVYBsQAbt8YfUmf-59" target="J9BvfFVYBsQAbt8YfUmf-60">
          <mxGeometry relative="1" as="geometry">
            <Array as="points">
              <mxPoint x="1020" y="435" />
              <mxPoint x="1020" y="335" />
            </Array>
          </mxGeometry>
        </mxCell>
        <mxCell id="J9BvfFVYBsQAbt8YfUmf-58" value="" style="edgeStyle=orthogonalEdgeStyle;rounded=0;orthogonalLoop=1;jettySize=auto;html=1;curved=0;entryX=0;entryY=0.5;entryDx=0;entryDy=0;" edge="1" parent="1" source="J9BvfFVYBsQAbt8YfUmf-59" target="J9BvfFVYBsQAbt8YfUmf-64">
          <mxGeometry relative="1" as="geometry">
            <mxPoint x="1045" y="465" as="targetPoint" />
          </mxGeometry>
        </mxCell>
        <mxCell id="J9BvfFVYBsQAbt8YfUmf-59" value="" style="html=1;points=[[0,0,0,0,5],[0,1,0,0,-5],[1,0,0,0,5],[1,1,0,0,-5]];perimeter=orthogonalPerimeter;outlineConnect=0;targetShapes=umlLifeline;portConstraint=eastwest;newEdgeStyle={&quot;curved&quot;:0,&quot;rounded&quot;:0};fillColor=#000000;" vertex="1" parent="1">
          <mxGeometry x="980" y="425" width="10" height="80" as="geometry" />
        </mxCell>
        <mxCell id="J9BvfFVYBsQAbt8YfUmf-60" value="" style="ellipse;whiteSpace=wrap;html=1;aspect=fixed;" vertex="1" parent="1">
          <mxGeometry x="830" y="295" width="80" height="80" as="geometry" />
        </mxCell>
        <mxCell id="J9BvfFVYBsQAbt8YfUmf-61" value="" style="ellipse;whiteSpace=wrap;html=1;aspect=fixed;fillColor=#050505;" vertex="1" parent="1">
          <mxGeometry x="855" y="320" width="30" height="30" as="geometry" />
        </mxCell>
        <mxCell id="J9BvfFVYBsQAbt8YfUmf-62" style="edgeStyle=orthogonalEdgeStyle;rounded=0;orthogonalLoop=1;jettySize=auto;html=1;entryX=0;entryY=0;entryDx=0;entryDy=5;entryPerimeter=0;" edge="1" parent="1" source="J9BvfFVYBsQAbt8YfUmf-60" target="J9BvfFVYBsQAbt8YfUmf-54">
          <mxGeometry relative="1" as="geometry">
            <Array as="points">
              <mxPoint x="710" y="335" />
              <mxPoint x="710" y="430" />
            </Array>
          </mxGeometry>
        </mxCell>
        <mxCell id="J9BvfFVYBsQAbt8YfUmf-63" value="" style="edgeStyle=orthogonalEdgeStyle;rounded=0;orthogonalLoop=1;jettySize=auto;html=1;" edge="1" parent="1" source="J9BvfFVYBsQAbt8YfUmf-64" target="J9BvfFVYBsQAbt8YfUmf-65">
          <mxGeometry relative="1" as="geometry" />
        </mxCell>
        <mxCell id="J9BvfFVYBsQAbt8YfUmf-64" value="" style="ellipse;whiteSpace=wrap;html=1;aspect=fixed;" vertex="1" parent="1">
          <mxGeometry x="1080" y="425" width="80" height="80" as="geometry" />
        </mxCell>
        <mxCell id="J9BvfFVYBsQAbt8YfUmf-101" value="" style="edgeStyle=orthogonalEdgeStyle;rounded=0;orthogonalLoop=1;jettySize=auto;html=1;curved=0;" edge="1" parent="1" source="J9BvfFVYBsQAbt8YfUmf-65" target="J9BvfFVYBsQAbt8YfUmf-95">
          <mxGeometry relative="1" as="geometry" />
        </mxCell>
        <mxCell id="J9BvfFVYBsQAbt8YfUmf-65" value="" style="html=1;points=[[0,0,0,0,5],[0,1,0,0,-5],[1,0,0,0,5],[1,1,0,0,-5]];perimeter=orthogonalPerimeter;outlineConnect=0;targetShapes=umlLifeline;portConstraint=eastwest;newEdgeStyle={&quot;curved&quot;:0,&quot;rounded&quot;:0};fillColor=#000000;" vertex="1" parent="1">
          <mxGeometry x="1230" y="425" width="10" height="80" as="geometry" />
        </mxCell>
        <mxCell id="J9BvfFVYBsQAbt8YfUmf-66" value="" style="edgeStyle=orthogonalEdgeStyle;rounded=0;orthogonalLoop=1;jettySize=auto;html=1;curved=0;" edge="1" parent="1" source="J9BvfFVYBsQAbt8YfUmf-67" target="J9BvfFVYBsQAbt8YfUmf-69">
          <mxGeometry relative="1" as="geometry" />
        </mxCell>
        <mxCell id="J9BvfFVYBsQAbt8YfUmf-67" value="" style="html=1;points=[[0,0,0,0,5],[0,1,0,0,-5],[1,0,0,0,5],[1,1,0,0,-5]];perimeter=orthogonalPerimeter;outlineConnect=0;targetShapes=umlLifeline;portConstraint=eastwest;newEdgeStyle={&quot;curved&quot;:0,&quot;rounded&quot;:0};fillColor=#000000;" vertex="1" parent="1">
          <mxGeometry x="500" y="705" width="10" height="80" as="geometry" />
        </mxCell>
        <mxCell id="J9BvfFVYBsQAbt8YfUmf-68" value="" style="edgeStyle=orthogonalEdgeStyle;rounded=0;orthogonalLoop=1;jettySize=auto;html=1;" edge="1" parent="1" source="J9BvfFVYBsQAbt8YfUmf-69" target="J9BvfFVYBsQAbt8YfUmf-71">
          <mxGeometry relative="1" as="geometry" />
        </mxCell>
        <mxCell id="J9BvfFVYBsQAbt8YfUmf-69" value="" style="ellipse;whiteSpace=wrap;html=1;aspect=fixed;" vertex="1" parent="1">
          <mxGeometry x="580" y="705" width="80" height="80" as="geometry" />
        </mxCell>
        <mxCell id="J9BvfFVYBsQAbt8YfUmf-70" value="" style="edgeStyle=orthogonalEdgeStyle;rounded=0;orthogonalLoop=1;jettySize=auto;html=1;curved=0;" edge="1" parent="1" source="J9BvfFVYBsQAbt8YfUmf-71" target="J9BvfFVYBsQAbt8YfUmf-73">
          <mxGeometry relative="1" as="geometry" />
        </mxCell>
        <mxCell id="J9BvfFVYBsQAbt8YfUmf-71" value="" style="html=1;points=[[0,0,0,0,5],[0,1,0,0,-5],[1,0,0,0,5],[1,1,0,0,-5]];perimeter=orthogonalPerimeter;outlineConnect=0;targetShapes=umlLifeline;portConstraint=eastwest;newEdgeStyle={&quot;curved&quot;:0,&quot;rounded&quot;:0};fillColor=#000000;" vertex="1" parent="1">
          <mxGeometry x="730" y="705" width="10" height="80" as="geometry" />
        </mxCell>
        <mxCell id="J9BvfFVYBsQAbt8YfUmf-72" value="" style="edgeStyle=orthogonalEdgeStyle;rounded=0;orthogonalLoop=1;jettySize=auto;html=1;" edge="1" parent="1" source="J9BvfFVYBsQAbt8YfUmf-73" target="J9BvfFVYBsQAbt8YfUmf-76">
          <mxGeometry relative="1" as="geometry" />
        </mxCell>
        <mxCell id="J9BvfFVYBsQAbt8YfUmf-73" value="" style="ellipse;whiteSpace=wrap;html=1;aspect=fixed;" vertex="1" parent="1">
          <mxGeometry x="830" y="705" width="80" height="80" as="geometry" />
        </mxCell>
        <mxCell id="J9BvfFVYBsQAbt8YfUmf-74" style="edgeStyle=orthogonalEdgeStyle;rounded=0;orthogonalLoop=1;jettySize=auto;html=1;curved=0;entryX=1;entryY=0.5;entryDx=0;entryDy=0;" edge="1" parent="1" source="J9BvfFVYBsQAbt8YfUmf-76" target="J9BvfFVYBsQAbt8YfUmf-77">
          <mxGeometry relative="1" as="geometry">
            <Array as="points">
              <mxPoint x="1020" y="715" />
              <mxPoint x="1020" y="615" />
            </Array>
          </mxGeometry>
        </mxCell>
        <mxCell id="J9BvfFVYBsQAbt8YfUmf-75" value="" style="edgeStyle=orthogonalEdgeStyle;rounded=0;orthogonalLoop=1;jettySize=auto;html=1;curved=0;entryX=0;entryY=0.5;entryDx=0;entryDy=0;" edge="1" parent="1" source="J9BvfFVYBsQAbt8YfUmf-76" target="J9BvfFVYBsQAbt8YfUmf-81">
          <mxGeometry relative="1" as="geometry">
            <mxPoint x="1045" y="745" as="targetPoint" />
          </mxGeometry>
        </mxCell>
        <mxCell id="J9BvfFVYBsQAbt8YfUmf-76" value="" style="html=1;points=[[0,0,0,0,5],[0,1,0,0,-5],[1,0,0,0,5],[1,1,0,0,-5]];perimeter=orthogonalPerimeter;outlineConnect=0;targetShapes=umlLifeline;portConstraint=eastwest;newEdgeStyle={&quot;curved&quot;:0,&quot;rounded&quot;:0};fillColor=#000000;" vertex="1" parent="1">
          <mxGeometry x="980" y="705" width="10" height="80" as="geometry" />
        </mxCell>
        <mxCell id="J9BvfFVYBsQAbt8YfUmf-77" value="" style="ellipse;whiteSpace=wrap;html=1;aspect=fixed;" vertex="1" parent="1">
          <mxGeometry x="830" y="575" width="80" height="80" as="geometry" />
        </mxCell>
        <mxCell id="J9BvfFVYBsQAbt8YfUmf-78" value="" style="ellipse;whiteSpace=wrap;html=1;aspect=fixed;fillColor=#050505;" vertex="1" parent="1">
          <mxGeometry x="855" y="600" width="30" height="30" as="geometry" />
        </mxCell>
        <mxCell id="J9BvfFVYBsQAbt8YfUmf-79" style="edgeStyle=orthogonalEdgeStyle;rounded=0;orthogonalLoop=1;jettySize=auto;html=1;entryX=0;entryY=0;entryDx=0;entryDy=5;entryPerimeter=0;" edge="1" parent="1" source="J9BvfFVYBsQAbt8YfUmf-77" target="J9BvfFVYBsQAbt8YfUmf-71">
          <mxGeometry relative="1" as="geometry">
            <Array as="points">
              <mxPoint x="710" y="615" />
              <mxPoint x="710" y="710" />
            </Array>
          </mxGeometry>
        </mxCell>
        <mxCell id="J9BvfFVYBsQAbt8YfUmf-80" value="" style="edgeStyle=orthogonalEdgeStyle;rounded=0;orthogonalLoop=1;jettySize=auto;html=1;" edge="1" parent="1" source="J9BvfFVYBsQAbt8YfUmf-81" target="J9BvfFVYBsQAbt8YfUmf-82">
          <mxGeometry relative="1" as="geometry" />
        </mxCell>
        <mxCell id="J9BvfFVYBsQAbt8YfUmf-81" value="" style="ellipse;whiteSpace=wrap;html=1;aspect=fixed;" vertex="1" parent="1">
          <mxGeometry x="1080" y="705" width="80" height="80" as="geometry" />
        </mxCell>
        <mxCell id="J9BvfFVYBsQAbt8YfUmf-102" value="" style="edgeStyle=orthogonalEdgeStyle;rounded=0;orthogonalLoop=1;jettySize=auto;html=1;curved=0;" edge="1" parent="1" source="J9BvfFVYBsQAbt8YfUmf-82" target="J9BvfFVYBsQAbt8YfUmf-98">
          <mxGeometry relative="1" as="geometry" />
        </mxCell>
        <mxCell id="J9BvfFVYBsQAbt8YfUmf-82" value="" style="html=1;points=[[0,0,0,0,5],[0,1,0,0,-5],[1,0,0,0,5],[1,1,0,0,-5]];perimeter=orthogonalPerimeter;outlineConnect=0;targetShapes=umlLifeline;portConstraint=eastwest;newEdgeStyle={&quot;curved&quot;:0,&quot;rounded&quot;:0};fillColor=#000000;" vertex="1" parent="1">
          <mxGeometry x="1230" y="705" width="10" height="80" as="geometry" />
        </mxCell>
        <mxCell id="J9BvfFVYBsQAbt8YfUmf-91" value="" style="edgeStyle=orthogonalEdgeStyle;rounded=0;orthogonalLoop=1;jettySize=auto;html=1;" edge="1" parent="1" source="J9BvfFVYBsQAbt8YfUmf-92" target="J9BvfFVYBsQAbt8YfUmf-93">
          <mxGeometry relative="1" as="geometry" />
        </mxCell>
        <mxCell id="J9BvfFVYBsQAbt8YfUmf-92" value="" style="ellipse;whiteSpace=wrap;html=1;aspect=fixed;" vertex="1" parent="1">
          <mxGeometry x="1310" y="155" width="80" height="80" as="geometry" />
        </mxCell>
        <mxCell id="J9BvfFVYBsQAbt8YfUmf-131" style="edgeStyle=orthogonalEdgeStyle;rounded=0;orthogonalLoop=1;jettySize=auto;html=1;curved=0;entryX=0;entryY=0;entryDx=0;entryDy=0;" edge="1" parent="1" source="J9BvfFVYBsQAbt8YfUmf-93" target="J9BvfFVYBsQAbt8YfUmf-108">
          <mxGeometry relative="1" as="geometry" />
        </mxCell>
        <mxCell id="J9BvfFVYBsQAbt8YfUmf-132" style="edgeStyle=orthogonalEdgeStyle;rounded=0;orthogonalLoop=1;jettySize=auto;html=1;curved=0;entryX=0.5;entryY=0;entryDx=0;entryDy=0;" edge="1" parent="1" source="J9BvfFVYBsQAbt8YfUmf-93" target="J9BvfFVYBsQAbt8YfUmf-108">
          <mxGeometry relative="1" as="geometry" />
        </mxCell>
        <mxCell id="J9BvfFVYBsQAbt8YfUmf-93" value="" style="html=1;points=[[0,0,0,0,5],[0,1,0,0,-5],[1,0,0,0,5],[1,1,0,0,-5]];perimeter=orthogonalPerimeter;outlineConnect=0;targetShapes=umlLifeline;portConstraint=eastwest;newEdgeStyle={&quot;curved&quot;:0,&quot;rounded&quot;:0};fillColor=#000000;" vertex="1" parent="1">
          <mxGeometry x="1460" y="155" width="10" height="80" as="geometry" />
        </mxCell>
        <mxCell id="J9BvfFVYBsQAbt8YfUmf-94" value="" style="edgeStyle=orthogonalEdgeStyle;rounded=0;orthogonalLoop=1;jettySize=auto;html=1;" edge="1" parent="1" source="J9BvfFVYBsQAbt8YfUmf-95" target="J9BvfFVYBsQAbt8YfUmf-96">
          <mxGeometry relative="1" as="geometry" />
        </mxCell>
        <mxCell id="J9BvfFVYBsQAbt8YfUmf-95" value="" style="ellipse;whiteSpace=wrap;html=1;aspect=fixed;" vertex="1" parent="1">
          <mxGeometry x="1310" y="425" width="80" height="80" as="geometry" />
        </mxCell>
        <mxCell id="J9BvfFVYBsQAbt8YfUmf-96" value="" style="html=1;points=[[0,0,0,0,5],[0,1,0,0,-5],[1,0,0,0,5],[1,1,0,0,-5]];perimeter=orthogonalPerimeter;outlineConnect=0;targetShapes=umlLifeline;portConstraint=eastwest;newEdgeStyle={&quot;curved&quot;:0,&quot;rounded&quot;:0};fillColor=#000000;" vertex="1" parent="1">
          <mxGeometry x="1460" y="425" width="10" height="80" as="geometry" />
        </mxCell>
        <mxCell id="J9BvfFVYBsQAbt8YfUmf-97" value="" style="edgeStyle=orthogonalEdgeStyle;rounded=0;orthogonalLoop=1;jettySize=auto;html=1;" edge="1" parent="1" source="J9BvfFVYBsQAbt8YfUmf-98" target="J9BvfFVYBsQAbt8YfUmf-99">
          <mxGeometry relative="1" as="geometry" />
        </mxCell>
        <mxCell id="J9BvfFVYBsQAbt8YfUmf-98" value="" style="ellipse;whiteSpace=wrap;html=1;aspect=fixed;" vertex="1" parent="1">
          <mxGeometry x="1310" y="705" width="80" height="80" as="geometry" />
        </mxCell>
        <mxCell id="J9BvfFVYBsQAbt8YfUmf-109" style="edgeStyle=orthogonalEdgeStyle;rounded=0;orthogonalLoop=1;jettySize=auto;html=1;curved=0;entryX=0.5;entryY=1;entryDx=0;entryDy=0;" edge="1" parent="1" source="J9BvfFVYBsQAbt8YfUmf-99" target="J9BvfFVYBsQAbt8YfUmf-108">
          <mxGeometry relative="1" as="geometry" />
        </mxCell>
        <mxCell id="J9BvfFVYBsQAbt8YfUmf-110" style="edgeStyle=orthogonalEdgeStyle;rounded=0;orthogonalLoop=1;jettySize=auto;html=1;curved=0;entryX=0;entryY=1;entryDx=0;entryDy=0;" edge="1" parent="1" source="J9BvfFVYBsQAbt8YfUmf-99" target="J9BvfFVYBsQAbt8YfUmf-108">
          <mxGeometry relative="1" as="geometry" />
        </mxCell>
        <mxCell id="J9BvfFVYBsQAbt8YfUmf-99" value="" style="html=1;points=[[0,0,0,0,5],[0,1,0,0,-5],[1,0,0,0,5],[1,1,0,0,-5]];perimeter=orthogonalPerimeter;outlineConnect=0;targetShapes=umlLifeline;portConstraint=eastwest;newEdgeStyle={&quot;curved&quot;:0,&quot;rounded&quot;:0};fillColor=#000000;" vertex="1" parent="1">
          <mxGeometry x="1460" y="705" width="10" height="80" as="geometry" />
        </mxCell>
        <mxCell id="J9BvfFVYBsQAbt8YfUmf-103" value="" style="ellipse;whiteSpace=wrap;html=1;aspect=fixed;" vertex="1" parent="1">
          <mxGeometry x="1310" y="600" width="80" height="80" as="geometry" />
        </mxCell>
        <mxCell id="J9BvfFVYBsQAbt8YfUmf-104" value="" style="ellipse;whiteSpace=wrap;html=1;aspect=fixed;fillColor=#050505;" vertex="1" parent="1">
          <mxGeometry x="1335" y="605" width="30" height="30" as="geometry" />
        </mxCell>
        <mxCell id="J9BvfFVYBsQAbt8YfUmf-105" value="" style="ellipse;whiteSpace=wrap;html=1;aspect=fixed;fillColor=#050505;" vertex="1" parent="1">
          <mxGeometry x="1335" y="645" width="30" height="30" as="geometry" />
        </mxCell>
        <mxCell id="J9BvfFVYBsQAbt8YfUmf-107" style="edgeStyle=orthogonalEdgeStyle;rounded=0;orthogonalLoop=1;jettySize=auto;html=1;entryX=0;entryY=0;entryDx=0;entryDy=5;entryPerimeter=0;" edge="1" parent="1" source="J9BvfFVYBsQAbt8YfUmf-103" target="J9BvfFVYBsQAbt8YfUmf-82">
          <mxGeometry relative="1" as="geometry">
            <Array as="points">
              <mxPoint x="1210" y="645" />
              <mxPoint x="1210" y="710" />
            </Array>
          </mxGeometry>
        </mxCell>
        <mxCell id="J9BvfFVYBsQAbt8YfUmf-133" style="edgeStyle=orthogonalEdgeStyle;rounded=0;orthogonalLoop=1;jettySize=auto;html=1;" edge="1" parent="1" source="J9BvfFVYBsQAbt8YfUmf-108" target="J9BvfFVYBsQAbt8YfUmf-111">
          <mxGeometry relative="1" as="geometry" />
        </mxCell>
        <mxCell id="J9BvfFVYBsQAbt8YfUmf-108" value="" style="ellipse;whiteSpace=wrap;html=1;aspect=fixed;" vertex="1" parent="1">
          <mxGeometry x="1710" y="425" width="80" height="80" as="geometry" />
        </mxCell>
        <mxCell id="J9BvfFVYBsQAbt8YfUmf-116" style="edgeStyle=orthogonalEdgeStyle;rounded=0;orthogonalLoop=1;jettySize=auto;html=1;curved=0;entryX=0.999;entryY=0.282;entryDx=0;entryDy=0;entryPerimeter=0;" edge="1" parent="1" source="J9BvfFVYBsQAbt8YfUmf-111" target="J9BvfFVYBsQAbt8YfUmf-123">
          <mxGeometry relative="1" as="geometry">
            <mxPoint x="2110" y="235" as="targetPoint" />
            <Array as="points">
              <mxPoint x="2010" y="445" />
              <mxPoint x="2010" y="73" />
            </Array>
          </mxGeometry>
        </mxCell>
        <mxCell id="J9BvfFVYBsQAbt8YfUmf-127" value="X2" style="edgeLabel;html=1;align=center;verticalAlign=middle;resizable=0;points=[];" vertex="1" connectable="0" parent="J9BvfFVYBsQAbt8YfUmf-116">
          <mxGeometry x="0.7379" y="-3" relative="1" as="geometry">
            <mxPoint as="offset" />
          </mxGeometry>
        </mxCell>
        <mxCell id="J9BvfFVYBsQAbt8YfUmf-135" style="edgeStyle=orthogonalEdgeStyle;rounded=0;orthogonalLoop=1;jettySize=auto;html=1;curved=0;entryX=0;entryY=0.5;entryDx=0;entryDy=0;" edge="1" parent="1" source="J9BvfFVYBsQAbt8YfUmf-111" target="J9BvfFVYBsQAbt8YfUmf-134">
          <mxGeometry relative="1" as="geometry" />
        </mxCell>
        <mxCell id="J9BvfFVYBsQAbt8YfUmf-111" value="" style="html=1;points=[[0,0,0,0,5],[0,1,0,0,-5],[1,0,0,0,5],[1,1,0,0,-5]];perimeter=orthogonalPerimeter;outlineConnect=0;targetShapes=umlLifeline;portConstraint=eastwest;newEdgeStyle={&quot;curved&quot;:0,&quot;rounded&quot;:0};fillColor=#000000;" vertex="1" parent="1">
          <mxGeometry x="1910" y="425" width="10" height="80" as="geometry" />
        </mxCell>
        <mxCell id="J9BvfFVYBsQAbt8YfUmf-112" style="edgeStyle=orthogonalEdgeStyle;rounded=0;orthogonalLoop=1;jettySize=auto;html=1;curved=0;entryX=1.009;entryY=0.347;entryDx=0;entryDy=0;entryPerimeter=0;exitX=1;exitY=1;exitDx=0;exitDy=-5;exitPerimeter=0;" edge="1" parent="1" source="J9BvfFVYBsQAbt8YfUmf-111" target="J9BvfFVYBsQAbt8YfUmf-103">
          <mxGeometry relative="1" as="geometry">
            <Array as="points">
              <mxPoint x="1960" y="500" />
              <mxPoint x="1960" y="628" />
            </Array>
          </mxGeometry>
        </mxCell>
        <mxCell id="J9BvfFVYBsQAbt8YfUmf-114" value="X2" style="edgeLabel;html=1;align=center;verticalAlign=middle;resizable=0;points=[];" vertex="1" connectable="0" parent="J9BvfFVYBsQAbt8YfUmf-112">
          <mxGeometry x="0.627" y="1" relative="1" as="geometry">
            <mxPoint as="offset" />
          </mxGeometry>
        </mxCell>
        <mxCell id="J9BvfFVYBsQAbt8YfUmf-115" style="edgeStyle=orthogonalEdgeStyle;rounded=0;orthogonalLoop=1;jettySize=auto;html=1;curved=0;entryX=0.986;entryY=0.236;entryDx=0;entryDy=0;entryPerimeter=0;" edge="1" parent="1" source="J9BvfFVYBsQAbt8YfUmf-111" target="J9BvfFVYBsQAbt8YfUmf-118">
          <mxGeometry relative="1" as="geometry">
            <Array as="points">
              <mxPoint x="1960" y="435" />
              <mxPoint x="1960" y="339" />
            </Array>
          </mxGeometry>
        </mxCell>
        <mxCell id="J9BvfFVYBsQAbt8YfUmf-128" value="X2" style="edgeLabel;html=1;align=center;verticalAlign=middle;resizable=0;points=[];" vertex="1" connectable="0" parent="J9BvfFVYBsQAbt8YfUmf-115">
          <mxGeometry x="0.6393" relative="1" as="geometry">
            <mxPoint as="offset" />
          </mxGeometry>
        </mxCell>
        <mxCell id="J9BvfFVYBsQAbt8YfUmf-117" style="edgeStyle=orthogonalEdgeStyle;rounded=0;orthogonalLoop=1;jettySize=auto;html=1;entryX=0;entryY=0;entryDx=0;entryDy=5;entryPerimeter=0;" edge="1" source="J9BvfFVYBsQAbt8YfUmf-118" parent="1">
          <mxGeometry relative="1" as="geometry">
            <mxPoint x="1230" y="430" as="targetPoint" />
            <Array as="points">
              <mxPoint x="1210" y="365" />
              <mxPoint x="1210" y="430" />
            </Array>
          </mxGeometry>
        </mxCell>
        <mxCell id="J9BvfFVYBsQAbt8YfUmf-118" value="" style="ellipse;whiteSpace=wrap;html=1;aspect=fixed;" vertex="1" parent="1">
          <mxGeometry x="1310" y="320" width="80" height="80" as="geometry" />
        </mxCell>
        <mxCell id="J9BvfFVYBsQAbt8YfUmf-119" value="" style="ellipse;whiteSpace=wrap;html=1;aspect=fixed;fillColor=#050505;" vertex="1" parent="1">
          <mxGeometry x="1335" y="365" width="30" height="30" as="geometry" />
        </mxCell>
        <mxCell id="J9BvfFVYBsQAbt8YfUmf-120" value="" style="ellipse;whiteSpace=wrap;html=1;aspect=fixed;fillColor=#050505;" vertex="1" parent="1">
          <mxGeometry x="1335" y="325" width="30" height="30" as="geometry" />
        </mxCell>
        <mxCell id="J9BvfFVYBsQAbt8YfUmf-122" style="edgeStyle=orthogonalEdgeStyle;rounded=0;orthogonalLoop=1;jettySize=auto;html=1;entryX=0;entryY=0;entryDx=0;entryDy=5;entryPerimeter=0;" edge="1" source="J9BvfFVYBsQAbt8YfUmf-123" parent="1">
          <mxGeometry relative="1" as="geometry">
            <mxPoint x="1230" y="160" as="targetPoint" />
            <Array as="points">
              <mxPoint x="1210" y="95" />
              <mxPoint x="1210" y="160" />
            </Array>
          </mxGeometry>
        </mxCell>
        <mxCell id="J9BvfFVYBsQAbt8YfUmf-123" value="" style="ellipse;whiteSpace=wrap;html=1;aspect=fixed;" vertex="1" parent="1">
          <mxGeometry x="1310" y="50" width="80" height="80" as="geometry" />
        </mxCell>
        <mxCell id="J9BvfFVYBsQAbt8YfUmf-124" value="" style="ellipse;whiteSpace=wrap;html=1;aspect=fixed;fillColor=#050505;" vertex="1" parent="1">
          <mxGeometry x="1335" y="95" width="30" height="30" as="geometry" />
        </mxCell>
        <mxCell id="J9BvfFVYBsQAbt8YfUmf-125" value="" style="ellipse;whiteSpace=wrap;html=1;aspect=fixed;fillColor=#050505;" vertex="1" parent="1">
          <mxGeometry x="1335" y="55" width="30" height="30" as="geometry" />
        </mxCell>
        <mxCell id="J9BvfFVYBsQAbt8YfUmf-129" style="edgeStyle=orthogonalEdgeStyle;rounded=0;orthogonalLoop=1;jettySize=auto;html=1;curved=0;entryX=0.039;entryY=0.686;entryDx=0;entryDy=0;entryPerimeter=0;" edge="1" parent="1" source="J9BvfFVYBsQAbt8YfUmf-96" target="J9BvfFVYBsQAbt8YfUmf-108">
          <mxGeometry relative="1" as="geometry" />
        </mxCell>
        <mxCell id="J9BvfFVYBsQAbt8YfUmf-130" style="edgeStyle=orthogonalEdgeStyle;rounded=0;orthogonalLoop=1;jettySize=auto;html=1;curved=0;entryX=0.013;entryY=0.331;entryDx=0;entryDy=0;entryPerimeter=0;" edge="1" parent="1" source="J9BvfFVYBsQAbt8YfUmf-96" target="J9BvfFVYBsQAbt8YfUmf-108">
          <mxGeometry relative="1" as="geometry" />
        </mxCell>
        <mxCell id="J9BvfFVYBsQAbt8YfUmf-137" value="" style="edgeStyle=orthogonalEdgeStyle;rounded=0;orthogonalLoop=1;jettySize=auto;html=1;" edge="1" parent="1" source="J9BvfFVYBsQAbt8YfUmf-134" target="J9BvfFVYBsQAbt8YfUmf-136">
          <mxGeometry relative="1" as="geometry" />
        </mxCell>
        <mxCell id="J9BvfFVYBsQAbt8YfUmf-134" value="" style="ellipse;whiteSpace=wrap;html=1;aspect=fixed;" vertex="1" parent="1">
          <mxGeometry x="2060" y="425" width="80" height="80" as="geometry" />
        </mxCell>
        <mxCell id="J9BvfFVYBsQAbt8YfUmf-136" value="" style="html=1;points=[[0,0,0,0,5],[0,1,0,0,-5],[1,0,0,0,5],[1,1,0,0,-5]];perimeter=orthogonalPerimeter;outlineConnect=0;targetShapes=umlLifeline;portConstraint=eastwest;newEdgeStyle={&quot;curved&quot;:0,&quot;rounded&quot;:0};fillColor=#000000;" vertex="1" parent="1">
          <mxGeometry x="2230" y="425" width="10" height="80" as="geometry" />
        </mxCell>
        <mxCell id="J9BvfFVYBsQAbt8YfUmf-138" value="Ingresa pedido" style="text;html=1;align=center;verticalAlign=middle;resizable=0;points=[];autosize=1;strokeColor=none;fillColor=none;" vertex="1" parent="1">
          <mxGeometry x="450" y="245" width="110" height="30" as="geometry" />
        </mxCell>
        <mxCell id="J9BvfFVYBsQAbt8YfUmf-139" value="&lt;div&gt;Pedido&lt;/div&gt;&lt;div&gt;en espera&lt;br&gt;&lt;/div&gt;" style="text;html=1;align=center;verticalAlign=middle;resizable=0;points=[];autosize=1;strokeColor=none;fillColor=none;" vertex="1" parent="1">
          <mxGeometry x="580" y="240" width="80" height="40" as="geometry" />
        </mxCell>
        <mxCell id="J9BvfFVYBsQAbt8YfUmf-140" value="&lt;div&gt;Pedido&lt;/div&gt;&lt;div&gt;en ejecucion&lt;br&gt;&lt;/div&gt;" style="text;html=1;align=center;verticalAlign=middle;resizable=0;points=[];autosize=1;strokeColor=none;fillColor=none;" vertex="1" parent="1">
          <mxGeometry x="690" y="240" width="90" height="40" as="geometry" />
        </mxCell>
        <mxCell id="J9BvfFVYBsQAbt8YfUmf-141" value="&lt;div&gt;Haciendo alfajor&lt;/div&gt;&lt;div&gt;de dulce de leche&lt;/div&gt;&lt;div&gt;con chocolate&lt;br&gt;&lt;/div&gt;" style="text;html=1;align=center;verticalAlign=middle;resizable=0;points=[];autosize=1;strokeColor=none;fillColor=none;" vertex="1" parent="1">
          <mxGeometry x="810" y="230" width="120" height="60" as="geometry" />
        </mxCell>
        <mxCell id="J9BvfFVYBsQAbt8YfUmf-142" value="Alfajor enviado" style="text;html=1;align=center;verticalAlign=middle;resizable=0;points=[];autosize=1;strokeColor=none;fillColor=none;" vertex="1" parent="1">
          <mxGeometry x="935" y="240" width="100" height="30" as="geometry" />
        </mxCell>
        <mxCell id="J9BvfFVYBsQAbt8YfUmf-143" value="Alfajor en espera" style="text;html=1;align=center;verticalAlign=middle;resizable=0;points=[];autosize=1;strokeColor=none;fillColor=none;" vertex="1" parent="1">
          <mxGeometry x="1060" y="240" width="120" height="30" as="geometry" />
        </mxCell>
        <mxCell id="J9BvfFVYBsQAbt8YfUmf-144" value="&lt;div&gt;Alfajor&lt;/div&gt;&lt;div&gt;preparado para&lt;/div&gt;&lt;div&gt;envio&lt;br&gt;&lt;/div&gt;" style="text;html=1;align=center;verticalAlign=middle;resizable=0;points=[];autosize=1;strokeColor=none;fillColor=none;" vertex="1" parent="1">
          <mxGeometry x="1180" y="230" width="110" height="60" as="geometry" />
        </mxCell>
        <mxCell id="J9BvfFVYBsQAbt8YfUmf-145" value="&lt;div&gt;En espera de envio&lt;/div&gt;&lt;div&gt;a caja&lt;br&gt;&lt;/div&gt;" style="text;html=1;align=center;verticalAlign=middle;resizable=0;points=[];autosize=1;strokeColor=none;fillColor=none;" vertex="1" parent="1">
          <mxGeometry x="1285" y="240" width="130" height="40" as="geometry" />
        </mxCell>
        <mxCell id="J9BvfFVYBsQAbt8YfUmf-146" value="&lt;div&gt;Metiendolo en&lt;/div&gt;&lt;div&gt;la caja&lt;br&gt;&lt;/div&gt;" style="text;html=1;align=center;verticalAlign=middle;resizable=0;points=[];autosize=1;strokeColor=none;fillColor=none;" vertex="1" parent="1">
          <mxGeometry x="1415" y="235" width="100" height="40" as="geometry" />
        </mxCell>
        <mxCell id="J9BvfFVYBsQAbt8YfUmf-147" value="Embalaje libre" style="text;html=1;align=center;verticalAlign=middle;resizable=0;points=[];autosize=1;strokeColor=none;fillColor=none;" vertex="1" parent="1">
          <mxGeometry x="1300" y="10" width="100" height="30" as="geometry" />
        </mxCell>
        <mxCell id="J9BvfFVYBsQAbt8YfUmf-148" value="Empleado libre" style="text;html=1;align=center;verticalAlign=middle;resizable=0;points=[];autosize=1;strokeColor=none;fillColor=none;" vertex="1" parent="1">
          <mxGeometry x="915" y="20" width="110" height="30" as="geometry" />
        </mxCell>
        <mxCell id="J9BvfFVYBsQAbt8YfUmf-149" value="Empleado libre" style="text;html=1;align=center;verticalAlign=middle;resizable=0;points=[];autosize=1;strokeColor=none;fillColor=none;" vertex="1" parent="1">
          <mxGeometry x="917.5" y="290" width="110" height="30" as="geometry" />
        </mxCell>
        <mxCell id="J9BvfFVYBsQAbt8YfUmf-150" value="Ingresa pedido" style="text;html=1;align=center;verticalAlign=middle;resizable=0;points=[];autosize=1;strokeColor=none;fillColor=none;" vertex="1" parent="1">
          <mxGeometry x="452.5" y="515" width="110" height="30" as="geometry" />
        </mxCell>
        <mxCell id="J9BvfFVYBsQAbt8YfUmf-151" value="&lt;div&gt;Pedido&lt;/div&gt;&lt;div&gt;en espera&lt;br&gt;&lt;/div&gt;" style="text;html=1;align=center;verticalAlign=middle;resizable=0;points=[];autosize=1;strokeColor=none;fillColor=none;" vertex="1" parent="1">
          <mxGeometry x="582.5" y="510" width="80" height="40" as="geometry" />
        </mxCell>
        <mxCell id="J9BvfFVYBsQAbt8YfUmf-152" value="&lt;div&gt;Pedido&lt;/div&gt;&lt;div&gt;en ejecucion&lt;br&gt;&lt;/div&gt;" style="text;html=1;align=center;verticalAlign=middle;resizable=0;points=[];autosize=1;strokeColor=none;fillColor=none;" vertex="1" parent="1">
          <mxGeometry x="692.5" y="510" width="90" height="40" as="geometry" />
        </mxCell>
        <mxCell id="J9BvfFVYBsQAbt8YfUmf-153" value="&lt;div&gt;Haciendo alfajor&lt;/div&gt;&lt;div&gt;de dulce de leche&lt;/div&gt;&lt;div&gt;con merengue&lt;br&gt;&lt;/div&gt;" style="text;html=1;align=center;verticalAlign=middle;resizable=0;points=[];autosize=1;strokeColor=none;fillColor=none;" vertex="1" parent="1">
          <mxGeometry x="812.5" y="500" width="120" height="60" as="geometry" />
        </mxCell>
        <mxCell id="J9BvfFVYBsQAbt8YfUmf-154" value="Alfajor enviado" style="text;html=1;align=center;verticalAlign=middle;resizable=0;points=[];autosize=1;strokeColor=none;fillColor=none;" vertex="1" parent="1">
          <mxGeometry x="937.5" y="510" width="100" height="30" as="geometry" />
        </mxCell>
        <mxCell id="J9BvfFVYBsQAbt8YfUmf-155" value="Alfajor en espera" style="text;html=1;align=center;verticalAlign=middle;resizable=0;points=[];autosize=1;strokeColor=none;fillColor=none;" vertex="1" parent="1">
          <mxGeometry x="1062.5" y="510" width="120" height="30" as="geometry" />
        </mxCell>
        <mxCell id="J9BvfFVYBsQAbt8YfUmf-156" value="&lt;div&gt;Alfajor&lt;/div&gt;&lt;div&gt;preparado para&lt;/div&gt;&lt;div&gt;envio&lt;br&gt;&lt;/div&gt;" style="text;html=1;align=center;verticalAlign=middle;resizable=0;points=[];autosize=1;strokeColor=none;fillColor=none;" vertex="1" parent="1">
          <mxGeometry x="1182.5" y="500" width="110" height="60" as="geometry" />
        </mxCell>
        <mxCell id="J9BvfFVYBsQAbt8YfUmf-157" value="&lt;div&gt;En espera de envio&lt;/div&gt;&lt;div&gt;a caja&lt;br&gt;&lt;/div&gt;" style="text;html=1;align=center;verticalAlign=middle;resizable=0;points=[];autosize=1;strokeColor=none;fillColor=none;" vertex="1" parent="1">
          <mxGeometry x="1287.5" y="510" width="130" height="40" as="geometry" />
        </mxCell>
        <mxCell id="J9BvfFVYBsQAbt8YfUmf-158" value="&lt;div&gt;Metiendolo en&lt;/div&gt;&lt;div&gt;la caja&lt;br&gt;&lt;/div&gt;" style="text;html=1;align=center;verticalAlign=middle;resizable=0;points=[];autosize=1;strokeColor=none;fillColor=none;" vertex="1" parent="1">
          <mxGeometry x="1417.5" y="505" width="100" height="40" as="geometry" />
        </mxCell>
        <mxCell id="J9BvfFVYBsQAbt8YfUmf-159" value="Embalaje libre" style="text;html=1;align=center;verticalAlign=middle;resizable=0;points=[];autosize=1;strokeColor=none;fillColor=none;" vertex="1" parent="1">
          <mxGeometry x="1302.5" y="280" width="100" height="30" as="geometry" />
        </mxCell>
        <mxCell id="J9BvfFVYBsQAbt8YfUmf-160" value="Empleado libre" style="text;html=1;align=center;verticalAlign=middle;resizable=0;points=[];autosize=1;strokeColor=none;fillColor=none;" vertex="1" parent="1">
          <mxGeometry x="917.5" y="570" width="110" height="30" as="geometry" />
        </mxCell>
        <mxCell id="J9BvfFVYBsQAbt8YfUmf-161" value="Ingresa pedido" style="text;html=1;align=center;verticalAlign=middle;resizable=0;points=[];autosize=1;strokeColor=none;fillColor=none;" vertex="1" parent="1">
          <mxGeometry x="452.5" y="795" width="110" height="30" as="geometry" />
        </mxCell>
        <mxCell id="J9BvfFVYBsQAbt8YfUmf-162" value="&lt;div&gt;Pedido&lt;/div&gt;&lt;div&gt;en espera&lt;br&gt;&lt;/div&gt;" style="text;html=1;align=center;verticalAlign=middle;resizable=0;points=[];autosize=1;strokeColor=none;fillColor=none;" vertex="1" parent="1">
          <mxGeometry x="582.5" y="790" width="80" height="40" as="geometry" />
        </mxCell>
        <mxCell id="J9BvfFVYBsQAbt8YfUmf-163" value="&lt;div&gt;Pedido&lt;/div&gt;&lt;div&gt;en ejecucion&lt;br&gt;&lt;/div&gt;" style="text;html=1;align=center;verticalAlign=middle;resizable=0;points=[];autosize=1;strokeColor=none;fillColor=none;" vertex="1" parent="1">
          <mxGeometry x="692.5" y="790" width="90" height="40" as="geometry" />
        </mxCell>
        <mxCell id="J9BvfFVYBsQAbt8YfUmf-164" value="&lt;div&gt;Haciendo alfajor&lt;/div&gt;&lt;div&gt;de fruta con merengue&lt;br&gt;&lt;/div&gt;" style="text;html=1;align=center;verticalAlign=middle;resizable=0;points=[];autosize=1;strokeColor=none;fillColor=none;" vertex="1" parent="1">
          <mxGeometry x="797.5" y="790" width="150" height="40" as="geometry" />
        </mxCell>
        <mxCell id="J9BvfFVYBsQAbt8YfUmf-165" value="Alfajor enviado" style="text;html=1;align=center;verticalAlign=middle;resizable=0;points=[];autosize=1;strokeColor=none;fillColor=none;" vertex="1" parent="1">
          <mxGeometry x="937.5" y="790" width="100" height="30" as="geometry" />
        </mxCell>
        <mxCell id="J9BvfFVYBsQAbt8YfUmf-166" value="Alfajor en espera" style="text;html=1;align=center;verticalAlign=middle;resizable=0;points=[];autosize=1;strokeColor=none;fillColor=none;" vertex="1" parent="1">
          <mxGeometry x="1062.5" y="790" width="120" height="30" as="geometry" />
        </mxCell>
        <mxCell id="J9BvfFVYBsQAbt8YfUmf-167" value="&lt;div&gt;Alfajor&lt;/div&gt;&lt;div&gt;preparado para&lt;/div&gt;&lt;div&gt;envio&lt;br&gt;&lt;/div&gt;" style="text;html=1;align=center;verticalAlign=middle;resizable=0;points=[];autosize=1;strokeColor=none;fillColor=none;" vertex="1" parent="1">
          <mxGeometry x="1182.5" y="780" width="110" height="60" as="geometry" />
        </mxCell>
        <mxCell id="J9BvfFVYBsQAbt8YfUmf-168" value="&lt;div&gt;En espera de envio&lt;/div&gt;&lt;div&gt;a caja&lt;br&gt;&lt;/div&gt;" style="text;html=1;align=center;verticalAlign=middle;resizable=0;points=[];autosize=1;strokeColor=none;fillColor=none;" vertex="1" parent="1">
          <mxGeometry x="1287.5" y="790" width="130" height="40" as="geometry" />
        </mxCell>
        <mxCell id="J9BvfFVYBsQAbt8YfUmf-169" value="&lt;div&gt;Metiendolo en&lt;/div&gt;&lt;div&gt;la caja&lt;br&gt;&lt;/div&gt;" style="text;html=1;align=center;verticalAlign=middle;resizable=0;points=[];autosize=1;strokeColor=none;fillColor=none;" vertex="1" parent="1">
          <mxGeometry x="1417.5" y="785" width="100" height="40" as="geometry" />
        </mxCell>
        <mxCell id="J9BvfFVYBsQAbt8YfUmf-170" value="Embalaje libre" style="text;html=1;align=center;verticalAlign=middle;resizable=0;points=[];autosize=1;strokeColor=none;fillColor=none;" vertex="1" parent="1">
          <mxGeometry x="1302.5" y="560" width="100" height="30" as="geometry" />
        </mxCell>
        <mxCell id="J9BvfFVYBsQAbt8YfUmf-171" value="&lt;div&gt;Cajas&lt;/div&gt;&lt;div&gt;ya llenas&lt;br&gt;&lt;/div&gt;" style="text;html=1;align=center;verticalAlign=middle;resizable=0;points=[];autosize=1;strokeColor=none;fillColor=none;" vertex="1" parent="1">
          <mxGeometry x="1750" y="500" width="70" height="40" as="geometry" />
        </mxCell>
        <mxCell id="J9BvfFVYBsQAbt8YfUmf-172" value="&lt;div&gt;Enviando caja&lt;/div&gt;&lt;div&gt;a sector&lt;/div&gt;&lt;div&gt;de almacenamiento&lt;br&gt;&lt;/div&gt;" style="text;html=1;align=center;verticalAlign=middle;resizable=0;points=[];autosize=1;strokeColor=none;fillColor=none;" vertex="1" parent="1">
          <mxGeometry x="1840" y="495" width="130" height="60" as="geometry" />
        </mxCell>
        <mxCell id="J9BvfFVYBsQAbt8YfUmf-173" value="Sector de almacenamiento" style="text;html=1;align=center;verticalAlign=middle;resizable=0;points=[];autosize=1;strokeColor=none;fillColor=none;" vertex="1" parent="1">
          <mxGeometry x="2015" y="505" width="170" height="30" as="geometry" />
        </mxCell>
        <mxCell id="J9BvfFVYBsQAbt8YfUmf-174" value="&lt;div&gt;Caja se retira&lt;/div&gt;&lt;div&gt;de la fabrica&lt;br&gt;&lt;/div&gt;" style="text;html=1;align=center;verticalAlign=middle;resizable=0;points=[];autosize=1;strokeColor=none;fillColor=none;" vertex="1" parent="1">
          <mxGeometry x="2185" y="505" width="100" height="40" as="geometry" />
        </mxCell>
      </root>
    </mxGraphModel>
  </diagram>
</mxfile>
